<mxfile host="app.diagrams.net" modified="2023-12-07T19:41:48.995Z" agent="Mozilla/5.0 (Windows NT 10.0; Win64; x64) AppleWebKit/537.36 (KHTML, like Gecko) Chrome/119.0.0.0 Safari/537.36 Edg/119.0.0.0" etag="zJTMxzCeDiQdCZTqc7pV" version="22.1.7" type="device">
  <diagram name="Page-1" id="2YBvvXClWsGukQMizWep">
    <mxGraphModel dx="1282" dy="587" grid="1" gridSize="10" guides="1" tooltips="1" connect="1" arrows="1" fold="1" page="1" pageScale="1" pageWidth="850" pageHeight="1100" math="0" shadow="0">
      <root>
        <mxCell id="0" />
        <mxCell id="1" parent="0" />
        <mxCell id="8Xo8PII-RNWYg87eT27i-60" value="" style="endArrow=classic;html=1;rounded=0;entryX=0.5;entryY=0.102;entryDx=0;entryDy=0;entryPerimeter=0;" edge="1" parent="1">
          <mxGeometry width="50" height="50" relative="1" as="geometry">
            <mxPoint x="95" y="800" as="sourcePoint" />
            <mxPoint x="895" y="800.11" as="targetPoint" />
          </mxGeometry>
        </mxCell>
        <mxCell id="8Xo8PII-RNWYg87eT27i-55" value="" style="html=1;verticalAlign=bottom;endArrow=open;dashed=1;endSize=8;curved=0;rounded=0;fontFamily=Helvetica;fontSize=12;fontColor=default;" edge="1" parent="1">
          <mxGeometry relative="1" as="geometry">
            <mxPoint x="779.5" y="679.0000000000001" as="sourcePoint" />
            <mxPoint x="100" y="679.0000000000001" as="targetPoint" />
          </mxGeometry>
        </mxCell>
        <mxCell id="8Xo8PII-RNWYg87eT27i-39" value="" style="endArrow=classic;html=1;rounded=0;" edge="1" parent="1" target="8Xo8PII-RNWYg87eT27i-43">
          <mxGeometry width="50" height="50" relative="1" as="geometry">
            <mxPoint x="779.5" y="423.0000000000001" as="sourcePoint" />
            <mxPoint x="616.6666666666667" y="423.0000000000001" as="targetPoint" />
          </mxGeometry>
        </mxCell>
        <mxCell id="aM9ryv3xv72pqoxQDRHE-1" value="HomePageController" style="shape=umlLifeline;perimeter=lifelinePerimeter;whiteSpace=wrap;html=1;container=0;dropTarget=0;collapsible=0;recursiveResize=0;outlineConnect=0;portConstraint=eastwest;newEdgeStyle={&quot;edgeStyle&quot;:&quot;elbowEdgeStyle&quot;,&quot;elbow&quot;:&quot;vertical&quot;,&quot;curved&quot;:0,&quot;rounded&quot;:0};" parent="1" vertex="1">
          <mxGeometry x="30" y="40" width="130" height="880" as="geometry" />
        </mxCell>
        <mxCell id="aM9ryv3xv72pqoxQDRHE-2" value="" style="html=1;points=[];perimeter=orthogonalPerimeter;outlineConnect=0;targetShapes=umlLifeline;portConstraint=eastwest;newEdgeStyle={&quot;edgeStyle&quot;:&quot;elbowEdgeStyle&quot;,&quot;elbow&quot;:&quot;vertical&quot;,&quot;curved&quot;:0,&quot;rounded&quot;:0};" parent="aM9ryv3xv72pqoxQDRHE-1" vertex="1">
          <mxGeometry x="60" y="60" width="10" height="780" as="geometry" />
        </mxCell>
        <mxCell id="aM9ryv3xv72pqoxQDRHE-5" value="DatabaseConnection" style="shape=umlLifeline;perimeter=lifelinePerimeter;whiteSpace=wrap;html=1;container=0;dropTarget=0;collapsible=0;recursiveResize=0;outlineConnect=0;portConstraint=eastwest;newEdgeStyle={&quot;edgeStyle&quot;:&quot;elbowEdgeStyle&quot;,&quot;elbow&quot;:&quot;vertical&quot;,&quot;curved&quot;:0,&quot;rounded&quot;:0};movable=1;resizable=1;rotatable=1;deletable=1;editable=1;locked=0;connectable=1;size=30;" parent="1" vertex="1">
          <mxGeometry x="240" y="90" width="120" height="830" as="geometry" />
        </mxCell>
        <mxCell id="8Xo8PII-RNWYg87eT27i-19" value="" style="html=1;points=[];perimeter=orthogonalPerimeter;outlineConnect=0;targetShapes=umlLifeline;portConstraint=eastwest;newEdgeStyle={&quot;edgeStyle&quot;:&quot;elbowEdgeStyle&quot;,&quot;elbow&quot;:&quot;vertical&quot;,&quot;curved&quot;:0,&quot;rounded&quot;:0};" vertex="1" parent="aM9ryv3xv72pqoxQDRHE-5">
          <mxGeometry x="55" y="70" width="10" height="80" as="geometry" />
        </mxCell>
        <mxCell id="8Xo8PII-RNWYg87eT27i-3" value="" style="group" vertex="1" connectable="0" parent="1">
          <mxGeometry x="140" y="80" width="100" height="30" as="geometry" />
        </mxCell>
        <mxCell id="8Xo8PII-RNWYg87eT27i-4" value="" style="group" vertex="1" connectable="0" parent="8Xo8PII-RNWYg87eT27i-3">
          <mxGeometry width="100" height="30" as="geometry" />
        </mxCell>
        <mxCell id="8Xo8PII-RNWYg87eT27i-1" value="" style="endArrow=classic;html=1;rounded=0;" edge="1" parent="8Xo8PII-RNWYg87eT27i-4" source="aM9ryv3xv72pqoxQDRHE-2">
          <mxGeometry width="50" height="50" relative="1" as="geometry">
            <mxPoint x="260" y="160" as="sourcePoint" />
            <mxPoint x="100" y="30" as="targetPoint" />
          </mxGeometry>
        </mxCell>
        <mxCell id="8Xo8PII-RNWYg87eT27i-2" value="&lt;div style=&quot;&quot;&gt;&lt;pre style=&quot;font-family: &amp;quot;JetBrains Mono&amp;quot;, monospace;&quot;&gt;getInstance()&lt;/pre&gt;&lt;/div&gt;" style="text;html=1;strokeColor=none;fillColor=none;align=center;verticalAlign=middle;whiteSpace=wrap;rounded=0;fontSize=12;fontFamily=Helvetica;fontColor=default;" vertex="1" parent="8Xo8PII-RNWYg87eT27i-4">
          <mxGeometry width="60" height="30" as="geometry" />
        </mxCell>
        <mxCell id="8Xo8PII-RNWYg87eT27i-6" value="" style="endArrow=classic;html=1;rounded=0;" edge="1" parent="1">
          <mxGeometry width="50" height="50" relative="1" as="geometry">
            <mxPoint x="100" y="159" as="sourcePoint" />
            <mxPoint x="299.5" y="159" as="targetPoint" />
          </mxGeometry>
        </mxCell>
        <mxCell id="8Xo8PII-RNWYg87eT27i-10" value="&lt;div style=&quot;&quot;&gt;&lt;pre style=&quot;font-family: &amp;quot;JetBrains Mono&amp;quot;, monospace;&quot;&gt;getConnection()&lt;/pre&gt;&lt;/div&gt;" style="text;html=1;strokeColor=none;fillColor=none;align=center;verticalAlign=middle;whiteSpace=wrap;rounded=0;fontSize=12;fontFamily=Helvetica;fontColor=default;" vertex="1" parent="1">
          <mxGeometry x="130" y="130" width="130" height="30" as="geometry" />
        </mxCell>
        <mxCell id="8Xo8PII-RNWYg87eT27i-21" value="" style="html=1;verticalAlign=bottom;endArrow=open;dashed=1;endSize=8;curved=0;rounded=0;fontFamily=Helvetica;fontSize=12;fontColor=default;" edge="1" parent="1">
          <mxGeometry relative="1" as="geometry">
            <mxPoint x="292.5" y="239.57999999999998" as="sourcePoint" />
            <mxPoint x="97.5" y="239.57999999999998" as="targetPoint" />
          </mxGeometry>
        </mxCell>
        <mxCell id="8Xo8PII-RNWYg87eT27i-22" value="" style="endArrow=classic;html=1;rounded=0;" edge="1" parent="1">
          <mxGeometry width="50" height="50" relative="1" as="geometry">
            <mxPoint x="100" y="280" as="sourcePoint" />
            <mxPoint x="400" y="280" as="targetPoint" />
          </mxGeometry>
        </mxCell>
        <mxCell id="8Xo8PII-RNWYg87eT27i-23" value="&lt;div style=&quot;&quot;&gt;&lt;pre style=&quot;font-family: &amp;quot;JetBrains Mono&amp;quot;, monospace;&quot;&gt;Food()&lt;/pre&gt;&lt;/div&gt;" style="text;html=1;strokeColor=none;fillColor=none;align=center;verticalAlign=middle;whiteSpace=wrap;rounded=0;fontSize=12;fontFamily=Helvetica;fontColor=default;" vertex="1" parent="1">
          <mxGeometry x="140" y="250" width="130" height="30" as="geometry" />
        </mxCell>
        <mxCell id="8Xo8PII-RNWYg87eT27i-24" value="Food" style="shape=umlLifeline;perimeter=lifelinePerimeter;whiteSpace=wrap;html=1;container=0;dropTarget=0;collapsible=0;recursiveResize=0;outlineConnect=0;portConstraint=eastwest;newEdgeStyle={&quot;edgeStyle&quot;:&quot;elbowEdgeStyle&quot;,&quot;elbow&quot;:&quot;vertical&quot;,&quot;curved&quot;:0,&quot;rounded&quot;:0};movable=1;resizable=1;rotatable=1;deletable=1;editable=1;locked=0;connectable=1;size=30;" vertex="1" parent="1">
          <mxGeometry x="400" y="265" width="120" height="655" as="geometry" />
        </mxCell>
        <mxCell id="8Xo8PII-RNWYg87eT27i-11" value="" style="html=1;points=[];perimeter=orthogonalPerimeter;outlineConnect=0;targetShapes=umlLifeline;portConstraint=eastwest;newEdgeStyle={&quot;edgeStyle&quot;:&quot;elbowEdgeStyle&quot;,&quot;elbow&quot;:&quot;vertical&quot;,&quot;curved&quot;:0,&quot;rounded&quot;:0};" vertex="1" parent="8Xo8PII-RNWYg87eT27i-24">
          <mxGeometry x="55" y="169" width="10" height="80" as="geometry" />
        </mxCell>
        <mxCell id="8Xo8PII-RNWYg87eT27i-17" value="" style="curved=1;endArrow=classic;html=1;rounded=0;fontFamily=Helvetica;fontSize=12;fontColor=default;exitX=0.889;exitY=0.002;exitDx=0;exitDy=0;exitPerimeter=0;entryX=0.911;entryY=1.01;entryDx=0;entryDy=0;entryPerimeter=0;" edge="1" parent="8Xo8PII-RNWYg87eT27i-24" source="8Xo8PII-RNWYg87eT27i-11" target="8Xo8PII-RNWYg87eT27i-11">
          <mxGeometry width="50" height="50" relative="1" as="geometry">
            <mxPoint x="-229.5" y="234" as="sourcePoint" />
            <mxPoint x="-179.5" y="184" as="targetPoint" />
            <Array as="points">
              <mxPoint x="-80" y="209" />
            </Array>
          </mxGeometry>
        </mxCell>
        <mxCell id="8Xo8PII-RNWYg87eT27i-27" value="" style="endArrow=classic;html=1;rounded=0;" edge="1" parent="1">
          <mxGeometry width="50" height="50" relative="1" as="geometry">
            <mxPoint x="96" y="320" as="sourcePoint" />
            <mxPoint x="556" y="320" as="targetPoint" />
          </mxGeometry>
        </mxCell>
        <mxCell id="8Xo8PII-RNWYg87eT27i-28" value="SortProxy" style="shape=umlLifeline;perimeter=lifelinePerimeter;whiteSpace=wrap;html=1;container=0;dropTarget=0;collapsible=0;recursiveResize=0;outlineConnect=0;portConstraint=eastwest;newEdgeStyle={&quot;edgeStyle&quot;:&quot;elbowEdgeStyle&quot;,&quot;elbow&quot;:&quot;vertical&quot;,&quot;curved&quot;:0,&quot;rounded&quot;:0};movable=1;resizable=1;rotatable=1;deletable=1;editable=1;locked=0;connectable=1;size=30;" vertex="1" parent="1">
          <mxGeometry x="557" y="306" width="120" height="614" as="geometry" />
        </mxCell>
        <mxCell id="8Xo8PII-RNWYg87eT27i-43" value="" style="html=1;points=[];perimeter=orthogonalPerimeter;outlineConnect=0;targetShapes=umlLifeline;portConstraint=eastwest;newEdgeStyle={&quot;edgeStyle&quot;:&quot;elbowEdgeStyle&quot;,&quot;elbow&quot;:&quot;vertical&quot;,&quot;curved&quot;:0,&quot;rounded&quot;:0};" vertex="1" parent="8Xo8PII-RNWYg87eT27i-28">
          <mxGeometry x="55" y="118" width="10" height="212" as="geometry" />
        </mxCell>
        <mxCell id="8Xo8PII-RNWYg87eT27i-47" value="" style="html=1;points=[];perimeter=orthogonalPerimeter;outlineConnect=0;targetShapes=umlLifeline;portConstraint=eastwest;newEdgeStyle={&quot;edgeStyle&quot;:&quot;elbowEdgeStyle&quot;,&quot;elbow&quot;:&quot;vertical&quot;,&quot;curved&quot;:0,&quot;rounded&quot;:0};" vertex="1" parent="8Xo8PII-RNWYg87eT27i-28">
          <mxGeometry x="65" y="210" width="10" height="50" as="geometry" />
        </mxCell>
        <mxCell id="8Xo8PII-RNWYg87eT27i-48" value="" style="curved=1;endArrow=classic;html=1;rounded=0;fontFamily=Helvetica;fontSize=12;fontColor=default;" edge="1" parent="8Xo8PII-RNWYg87eT27i-28" source="8Xo8PII-RNWYg87eT27i-43" target="8Xo8PII-RNWYg87eT27i-47">
          <mxGeometry width="50" height="50" relative="1" as="geometry">
            <mxPoint x="-83" y="138" as="sourcePoint" />
            <mxPoint x="-83" y="219" as="targetPoint" />
            <Array as="points">
              <mxPoint x="123" y="184" />
            </Array>
          </mxGeometry>
        </mxCell>
        <mxCell id="8Xo8PII-RNWYg87eT27i-52" value="" style="html=1;verticalAlign=bottom;endArrow=open;dashed=1;endSize=8;rounded=0;fontFamily=Helvetica;fontSize=12;fontColor=default;edgeStyle=orthogonalEdgeStyle;curved=1;" edge="1" parent="8Xo8PII-RNWYg87eT27i-28" source="8Xo8PII-RNWYg87eT27i-47" target="8Xo8PII-RNWYg87eT27i-43">
          <mxGeometry relative="1" as="geometry">
            <mxPoint x="130" y="284" as="sourcePoint" />
            <mxPoint x="120" y="234" as="targetPoint" />
            <Array as="points">
              <mxPoint x="103" y="254" />
              <mxPoint x="103" y="284" />
            </Array>
          </mxGeometry>
        </mxCell>
        <mxCell id="8Xo8PII-RNWYg87eT27i-30" value="TableDecorator" style="shape=umlLifeline;perimeter=lifelinePerimeter;whiteSpace=wrap;html=1;container=0;dropTarget=0;collapsible=0;recursiveResize=0;outlineConnect=0;portConstraint=eastwest;newEdgeStyle={&quot;edgeStyle&quot;:&quot;elbowEdgeStyle&quot;,&quot;elbow&quot;:&quot;vertical&quot;,&quot;curved&quot;:0,&quot;rounded&quot;:0};movable=1;resizable=1;rotatable=1;deletable=1;editable=1;locked=0;connectable=1;size=30;" vertex="1" parent="1">
          <mxGeometry x="720" y="343" width="120" height="577" as="geometry" />
        </mxCell>
        <mxCell id="8Xo8PII-RNWYg87eT27i-38" value="" style="html=1;points=[];perimeter=orthogonalPerimeter;outlineConnect=0;targetShapes=umlLifeline;portConstraint=eastwest;newEdgeStyle={&quot;edgeStyle&quot;:&quot;elbowEdgeStyle&quot;,&quot;elbow&quot;:&quot;vertical&quot;,&quot;curved&quot;:0,&quot;rounded&quot;:0};" vertex="1" parent="8Xo8PII-RNWYg87eT27i-30">
          <mxGeometry x="55" y="55" width="10" height="305" as="geometry" />
        </mxCell>
        <mxCell id="8Xo8PII-RNWYg87eT27i-32" value="&lt;div style=&quot;&quot;&gt;&lt;pre style=&quot;font-family: &amp;quot;JetBrains Mono&amp;quot;, monospace;&quot;&gt;SortProxy()&lt;/pre&gt;&lt;/div&gt;" style="text;html=1;strokeColor=none;fillColor=none;align=center;verticalAlign=middle;whiteSpace=wrap;rounded=0;fontSize=12;fontFamily=Helvetica;fontColor=default;" vertex="1" parent="1">
          <mxGeometry x="140" y="290" width="130" height="30" as="geometry" />
        </mxCell>
        <mxCell id="8Xo8PII-RNWYg87eT27i-33" value="&lt;div style=&quot;&quot;&gt;&lt;pre style=&quot;font-family: &amp;quot;JetBrains Mono&amp;quot;, monospace;&quot;&gt;TableDecorator()&lt;/pre&gt;&lt;/div&gt;" style="text;html=1;strokeColor=none;fillColor=none;align=center;verticalAlign=middle;whiteSpace=wrap;rounded=0;fontSize=12;fontFamily=Helvetica;fontColor=default;" vertex="1" parent="1">
          <mxGeometry x="140" y="330" width="130" height="30" as="geometry" />
        </mxCell>
        <mxCell id="8Xo8PII-RNWYg87eT27i-34" value="" style="endArrow=classic;html=1;rounded=0;" edge="1" parent="1">
          <mxGeometry width="50" height="50" relative="1" as="geometry">
            <mxPoint x="97" y="360" as="sourcePoint" />
            <mxPoint x="720" y="360" as="targetPoint" />
          </mxGeometry>
        </mxCell>
        <mxCell id="8Xo8PII-RNWYg87eT27i-36" value="" style="endArrow=classic;html=1;rounded=0;" edge="1" parent="1" target="8Xo8PII-RNWYg87eT27i-30">
          <mxGeometry width="50" height="50" relative="1" as="geometry">
            <mxPoint x="96" y="398" as="sourcePoint" />
            <mxPoint x="719" y="398" as="targetPoint" />
          </mxGeometry>
        </mxCell>
        <mxCell id="8Xo8PII-RNWYg87eT27i-37" value="&lt;div style=&quot;&quot;&gt;&lt;pre style=&quot;font-family: &amp;quot;JetBrains Mono&amp;quot;, monospace;&quot;&gt;getData()&lt;/pre&gt;&lt;/div&gt;" style="text;html=1;strokeColor=none;fillColor=none;align=center;verticalAlign=middle;whiteSpace=wrap;rounded=0;fontSize=12;fontFamily=Helvetica;fontColor=default;" vertex="1" parent="1">
          <mxGeometry x="140" y="369" width="130" height="30" as="geometry" />
        </mxCell>
        <mxCell id="8Xo8PII-RNWYg87eT27i-41" value="&lt;div style=&quot;&quot;&gt;&lt;pre style=&quot;font-family: &amp;quot;JetBrains Mono&amp;quot;, monospace;&quot;&gt;sortData()&lt;/pre&gt;&lt;/div&gt;" style="text;html=1;strokeColor=none;fillColor=none;align=center;verticalAlign=middle;whiteSpace=wrap;rounded=0;fontSize=12;fontFamily=Helvetica;fontColor=default;" vertex="1" parent="1">
          <mxGeometry x="640" y="399" width="130" height="30" as="geometry" />
        </mxCell>
        <mxCell id="8Xo8PII-RNWYg87eT27i-42" value="" style="endArrow=classic;html=1;rounded=0;" edge="1" parent="1">
          <mxGeometry width="50" height="50" relative="1" as="geometry">
            <mxPoint x="612" y="434" as="sourcePoint" />
            <mxPoint x="465" y="434" as="targetPoint" />
          </mxGeometry>
        </mxCell>
        <mxCell id="8Xo8PII-RNWYg87eT27i-44" value="&lt;div style=&quot;&quot;&gt;&lt;pre style=&quot;font-family: &amp;quot;JetBrains Mono&amp;quot;, monospace;&quot;&gt;getData()&lt;/pre&gt;&lt;/div&gt;" style="text;html=1;strokeColor=none;fillColor=none;align=center;verticalAlign=middle;whiteSpace=wrap;rounded=0;fontSize=12;fontFamily=Helvetica;fontColor=default;" vertex="1" parent="1">
          <mxGeometry x="470.5" y="410" width="130" height="30" as="geometry" />
        </mxCell>
        <mxCell id="8Xo8PII-RNWYg87eT27i-46" value="" style="html=1;verticalAlign=bottom;endArrow=open;dashed=1;endSize=8;curved=0;rounded=0;fontFamily=Helvetica;fontSize=12;fontColor=default;" edge="1" parent="1" target="8Xo8PII-RNWYg87eT27i-43">
          <mxGeometry relative="1" as="geometry">
            <mxPoint x="465" y="514" as="sourcePoint" />
            <mxPoint x="616.5" y="514" as="targetPoint" />
          </mxGeometry>
        </mxCell>
        <mxCell id="8Xo8PII-RNWYg87eT27i-49" value="&lt;div style=&quot;&quot;&gt;&lt;pre style=&quot;font-family: &amp;quot;JetBrains Mono&amp;quot;, monospace;&quot;&gt;sortData()&lt;/pre&gt;&lt;/div&gt;" style="text;html=1;strokeColor=none;fillColor=none;align=center;verticalAlign=middle;whiteSpace=wrap;rounded=0;fontSize=12;fontFamily=Helvetica;fontColor=default;" vertex="1" parent="1">
          <mxGeometry x="600" y="460" width="130" height="30" as="geometry" />
        </mxCell>
        <mxCell id="8Xo8PII-RNWYg87eT27i-54" value="" style="html=1;verticalAlign=bottom;endArrow=open;dashed=1;endSize=8;curved=0;rounded=0;fontFamily=Helvetica;fontSize=12;fontColor=default;" edge="1" parent="1">
          <mxGeometry relative="1" as="geometry">
            <mxPoint x="622" y="624" as="sourcePoint" />
            <mxPoint x="775" y="624" as="targetPoint" />
          </mxGeometry>
        </mxCell>
        <mxCell id="8Xo8PII-RNWYg87eT27i-56" value="Template" style="shape=umlLifeline;perimeter=lifelinePerimeter;whiteSpace=wrap;html=1;container=0;dropTarget=0;collapsible=0;recursiveResize=0;outlineConnect=0;portConstraint=eastwest;newEdgeStyle={&quot;edgeStyle&quot;:&quot;elbowEdgeStyle&quot;,&quot;elbow&quot;:&quot;vertical&quot;,&quot;curved&quot;:0,&quot;rounded&quot;:0};movable=1;resizable=1;rotatable=1;deletable=1;editable=1;locked=0;connectable=1;size=30;" vertex="1" parent="1">
          <mxGeometry x="840" y="714" width="120" height="206" as="geometry" />
        </mxCell>
        <mxCell id="8Xo8PII-RNWYg87eT27i-57" value="" style="html=1;points=[];perimeter=orthogonalPerimeter;outlineConnect=0;targetShapes=umlLifeline;portConstraint=eastwest;newEdgeStyle={&quot;edgeStyle&quot;:&quot;elbowEdgeStyle&quot;,&quot;elbow&quot;:&quot;vertical&quot;,&quot;curved&quot;:0,&quot;rounded&quot;:0};" vertex="1" parent="8Xo8PII-RNWYg87eT27i-56">
          <mxGeometry x="55" y="55" width="10" height="105" as="geometry" />
        </mxCell>
        <mxCell id="8Xo8PII-RNWYg87eT27i-58" value="" style="endArrow=classic;html=1;rounded=0;" edge="1" parent="1">
          <mxGeometry width="50" height="50" relative="1" as="geometry">
            <mxPoint x="100" y="730" as="sourcePoint" />
            <mxPoint x="840" y="730" as="targetPoint" />
          </mxGeometry>
        </mxCell>
        <mxCell id="8Xo8PII-RNWYg87eT27i-59" value="&lt;div style=&quot;&quot;&gt;&lt;pre style=&quot;font-family: &amp;quot;JetBrains Mono&amp;quot;, monospace;&quot;&gt;Template()&lt;/pre&gt;&lt;/div&gt;" style="text;html=1;strokeColor=none;fillColor=none;align=center;verticalAlign=middle;whiteSpace=wrap;rounded=0;fontSize=12;fontFamily=Helvetica;fontColor=default;" vertex="1" parent="1">
          <mxGeometry x="330" y="700" width="130" height="30" as="geometry" />
        </mxCell>
        <mxCell id="8Xo8PII-RNWYg87eT27i-61" value="&lt;div style=&quot;&quot;&gt;&lt;pre style=&quot;font-family: &amp;quot;JetBrains Mono&amp;quot;, monospace;&quot;&gt;view()&lt;/pre&gt;&lt;/div&gt;" style="text;html=1;strokeColor=none;fillColor=none;align=center;verticalAlign=middle;whiteSpace=wrap;rounded=0;fontSize=12;fontFamily=Helvetica;fontColor=default;" vertex="1" parent="1">
          <mxGeometry x="330" y="770" width="130" height="30" as="geometry" />
        </mxCell>
      </root>
    </mxGraphModel>
  </diagram>
</mxfile>
